<svg width="17" height="17" viewBox="0 0 17 17" fill="none" xmlns="http://www.w3.org/2000/svg">
<g clip-path="url(#clip0_1_176)">
<path fill-rule="evenodd" clip-rule="evenodd" d="M8.50703 0C3.80286 0 0 3.8309 0 8.57024C0 12.3587 2.43663 15.5655 5.81687 16.7005C6.23949 16.7858 6.39429 16.5161 6.39429 16.2892C6.39429 16.0905 6.38036 15.4094 6.38036 14.6999C4.01391 15.2108 3.52112 13.6782 3.52112 13.6782C3.14081 12.685 2.57732 12.4297 2.57732 12.4297C1.80279 11.9047 2.63374 11.9047 2.63374 11.9047C3.49291 11.9615 3.94374 12.7844 3.94374 12.7844C4.70417 14.0897 5.92953 13.7209 6.4225 13.4938C6.49285 12.9404 6.71835 12.5573 6.95778 12.3445C5.07037 12.1459 3.08457 11.4081 3.08457 8.11611C3.08457 7.17963 3.42239 6.41345 3.95767 5.81757C3.87321 5.60478 3.57736 4.72489 4.04229 3.54724C4.04229 3.54724 4.76059 3.32017 6.38019 4.42695C7.0736 4.23935 7.7887 4.14392 8.50703 4.14312C9.22533 4.14312 9.95755 4.24255 10.6337 4.42695C12.2535 3.32017 12.9718 3.54724 12.9718 3.54724C13.4367 4.72489 13.1407 5.60478 13.0562 5.81757C13.6056 6.41345 13.9295 7.17963 13.9295 8.11611C13.9295 11.4081 11.9437 12.1316 10.0422 12.3445C10.3521 12.6141 10.6196 13.1248 10.6196 13.9337C10.6196 15.0829 10.6057 16.0053 10.6057 16.289C10.6057 16.5161 10.7606 16.7858 11.1831 16.7006C14.5633 15.5653 17 12.3587 17 8.57024C17.0139 3.8309 13.1971 0 8.50703 0Z" fill="white"/>
</g>
<defs>
<clipPath id="clip0_1_176">
<rect width="17" height="17" fill="white"/>
</clipPath>
</defs>
</svg>
