<svg width="17" height="17" viewBox="0 0 17 17" fill="none" xmlns="http://www.w3.org/2000/svg">
<g clip-path="url(#clip0_1_179)">
<path fill-rule="evenodd" clip-rule="evenodd" d="M17 8.5C17 13.1944 13.1944 17 8.5 17C3.80558 17 0 13.1944 0 8.5C0 3.80558 3.80558 0 8.5 0C13.1944 0 17 3.80558 17 8.5ZM8.8046 6.27507C7.97785 6.61895 6.32551 7.33068 3.84759 8.41027C3.44521 8.57028 3.23443 8.72682 3.21524 8.87988C3.18281 9.13856 3.50675 9.24042 3.94787 9.37913C4.00788 9.39799 4.07005 9.41754 4.13379 9.43826C4.56778 9.57934 5.15159 9.74438 5.45508 9.75094C5.73038 9.75689 6.03764 9.64339 6.37687 9.41045C8.69207 7.84763 9.88719 7.0577 9.96222 7.04067C10.0152 7.02865 10.0885 7.01355 10.1382 7.05772C10.1879 7.1019 10.183 7.18556 10.1778 7.208C10.1457 7.34481 8.87409 8.52698 8.21604 9.13876C8.0109 9.32948 7.86539 9.46476 7.83564 9.49566C7.769 9.56487 7.70109 9.63034 7.63582 9.69326C7.23263 10.0819 6.93027 10.3734 7.65256 10.8494C7.99966 11.0781 8.27742 11.2673 8.55451 11.456C8.85713 11.6621 9.15896 11.8676 9.54948 12.1236C9.64897 12.1888 9.74399 12.2566 9.83655 12.3225C10.1887 12.5736 10.5051 12.7992 10.896 12.7632C11.1231 12.7423 11.3577 12.5287 11.4769 11.8917C11.7585 10.3864 12.312 7.12474 12.4399 5.78069C12.4511 5.66293 12.437 5.51223 12.4257 5.44607C12.4144 5.37992 12.3907 5.28566 12.3047 5.21588C12.2029 5.13325 12.0457 5.11582 11.9753 5.11706C11.6556 5.12269 11.1651 5.29325 8.8046 6.27507Z" fill="white"/>
</g>
<defs>
<clipPath id="clip0_1_179">
<rect width="17" height="17" fill="white"/>
</clipPath>
</defs>
</svg>
